<svg xmlns="http://www.w3.org/2000/svg" viewBox="0 0 247.35 48.01"><defs><style>.cls-1{fill:none;}.cls-2{fill:#ae0004;}.cls-3{fill:#76a5a4;}</style></defs><g id="Capa_2" data-name="Capa 2"><g id="NadaHero_Imagen" data-name="NadaHero Imagen"><path class="cls-1" d="M32.74,21.36a8,8,0,0,0,1.17-1.44c.25-.42.23-.61,0-.59a2.53,2.53,0,0,0-1.06.42,8,8,0,0,0-1.28,1,16.83,16.83,0,0,0-1.34,1.42,19.41,19.41,0,0,0-1.26,1.74,5.56,5.56,0,0,0,2-1A13.82,13.82,0,0,0,32.74,21.36Z"/><path class="cls-2" d="M23,40.51a2.28,2.28,0,0,0,.5-1.16q.07-.69-.12-.81a.3.3,0,0,0-.39.06.71.71,0,0,0-.15.3,1,1,0,0,1-.17.39,2,2,0,0,1-.35.38,1.12,1.12,0,0,1-.63.21,2.75,2.75,0,0,1-1.84-.55A9.8,9.8,0,0,1,18,37.6a18.66,18.66,0,0,1-1.78-2.5c-.56-.94-1.1-1.91-1.62-2.92s-1-2-1.4-2.9-.76-1.79-1-2.54l.45,0a3.39,3.39,0,0,0,.45,0,9.69,9.69,0,0,0,3.43-1.09,25.22,25.22,0,0,0,3.91-2.5,35.74,35.74,0,0,0,3.89-3.51,35.66,35.66,0,0,0,3.47-4.15,28.21,28.21,0,0,0,2.57-4.4,13.8,13.8,0,0,0,1.22-4.26,6.2,6.2,0,0,0-.27-2.26A6.37,6.37,0,0,0,30,2.26,6.53,6.53,0,0,0,27.48.51,7.89,7.89,0,0,0,23.65.05,25.48,25.48,0,0,0,15.26,2.3c-.74.33-1.45.69-2.15,1.06-.26.14-.5.29-.76.44A33.36,33.36,0,0,0,7.84,6.86a27.79,27.79,0,0,0-5.4,5.73,12.53,12.53,0,0,0-2.39,5.8,5.07,5.07,0,0,0,.2,2.4,4.09,4.09,0,0,0,.86,1.39A3.58,3.58,0,0,0,2.52,23c0-.21-.06-.44-.09-.69a10.28,10.28,0,0,1,.06-1.76,10.93,10.93,0,0,1,2-4.7,26.86,26.86,0,0,1,4.79-5.25A32.66,32.66,0,0,1,16.13,6.1a22.77,22.77,0,0,1,8.14-2.28,8,8,0,0,1,1.55,0,4.31,4.31,0,0,1,1.4.39,2.24,2.24,0,0,1,1,.84,2.07,2.07,0,0,1,.26,1.36,9.62,9.62,0,0,1-1.2,3.64,20.86,20.86,0,0,1-2.58,3.68,33.43,33.43,0,0,1-3.47,3.47,39.92,39.92,0,0,1-3.82,3,31,31,0,0,1-3.72,2.21,13.35,13.35,0,0,1-3.09,1.18c1-1.65,2-3.21,3-4.68s1.94-2.77,2.76-3.89,1.49-2,2-2.78a5,5,0,0,0,.79-1.37,1.17,1.17,0,0,0-.36-.84,3.92,3.92,0,0,0-1-.82,8.84,8.84,0,0,0-1.14-.59,1.94,1.94,0,0,0-.79-.23c-.24,0-.74.51-1.5,1.46s-1.64,2.2-2.63,3.74-2.07,3.31-3.2,5.28-2.19,4-3.17,6.1a63.7,63.7,0,0,0-2.52,6.21,25.31,25.31,0,0,0-1.31,5.59,8.15,8.15,0,0,0,.34,4.09c.42.87,1,1.27,1.61,1.21s1-.25,1.12-.6.14-.61,0-.77-.09,0-.18,0a.88.88,0,0,1-.28,0c-.09,0-.16-.09-.22-.25a2.07,2.07,0,0,1,0-.87,22,22,0,0,1,1.4-5.68A53.13,53.13,0,0,1,8,28.06c.34.82.76,1.77,1.27,2.84s1.06,2.16,1.66,3.26,1.23,2.17,1.93,3.23A23.15,23.15,0,0,0,15,40.18a10.35,10.35,0,0,0,2.24,1.9,3.59,3.59,0,0,0,2.24.6,3.61,3.61,0,0,0,1.19-.37,7.41,7.41,0,0,0,1.3-.77A6,6,0,0,0,23,40.51Z"/><path class="cls-2" d="M43.6,21.64a24,24,0,0,1,3.48-3.37,50.89,50.89,0,0,1-2,5c-.32.62-.65,1.24-1,1.84a11.72,11.72,0,0,1-1.11,1.64A6.53,6.53,0,0,1,41.7,28a2.45,2.45,0,0,1-1.27.53c-.14,0-.23-.06-.29-.22s-.19-.11-.41.13a1.85,1.85,0,0,0-.44,1.07,2.93,2.93,0,0,0,.16,1.27,2.49,2.49,0,0,0,.73,1.06,1.66,1.66,0,0,0,1.27.35,3.7,3.7,0,0,0,2.11-1,13.23,13.23,0,0,0,2-2.33,27.67,27.67,0,0,0,1.84-3.05c.57-1.1,1.07-2.17,1.49-3.21s.78-2,1-2.83a10.3,10.3,0,0,0,.46-1.87,5.14,5.14,0,0,0-.24-2.57,1.24,1.24,0,0,0-1.34-.84q-1,.09-2.7,1.86a53.48,53.48,0,0,0-3.62,4.32c.59-1.11,1-1.94,1.36-2.49A4.31,4.31,0,0,0,44.4,17a1.16,1.16,0,0,0-.2-.73,2.74,2.74,0,0,0-.62-.66,2.89,2.89,0,0,0-.92-.43,3,3,0,0,0-1.08-.11,6.32,6.32,0,0,0-1.13,1.68c-.65,1.11-1.43,2.54-2.36,4.28-.54,1-1.09,2.08-1.67,3.23l-1.26,1.25A25.34,25.34,0,0,1,33,27.48,12.32,12.32,0,0,1,30.58,29a4.32,4.32,0,0,1-2.39.44.91.91,0,0,1-.83-.62,2.49,2.49,0,0,1-.07-1.2,6,6,0,0,1,.39-1.37,7.3,7.3,0,0,1,.53-1.11,2,2,0,0,0,.6.86,1.51,1.51,0,0,0,1.17.32,4.33,4.33,0,0,0,2.29-1,11.31,11.31,0,0,0,2-2A15.46,15.46,0,0,0,35.75,21a5.72,5.72,0,0,0,.65-1.91,3.07,3.07,0,0,0-.63-2.66,2.55,2.55,0,0,0-2.05-.66A6.31,6.31,0,0,0,30.92,17,18.8,18.8,0,0,0,27.64,20a21.84,21.84,0,0,0-2.83,4,11.57,11.57,0,0,0-1.46,4.47A5.78,5.78,0,0,0,24,32.17a2.62,2.62,0,0,0,2.65,1.27,7.36,7.36,0,0,0,3.13-1.09,18.51,18.51,0,0,0,3-2.24c.54-.48,1-1,1.51-1.48-.77,1.64-1.51,3.28-2.21,4.9q-1.39,3.26-2.4,6.18a22.18,22.18,0,0,0-1.21,4.87,4.17,4.17,0,0,0,.11,1.62,3.38,3.38,0,0,0,.54,1.11,1.8,1.8,0,0,0,.71.61.88.88,0,0,0,.69,0c.09-.05.13-.11.12-.19s0-.2,0-.37a2.6,2.6,0,0,1,0-.61,4,4,0,0,1,.26-1c1-2.56,2-4.91,2.92-7.07s1.81-4.14,2.63-5.95a47.25,47.25,0,0,1,3.71-6.62A52,52,0,0,1,43.6,21.64Zm-13.42.53a16.83,16.83,0,0,1,1.34-1.42,8,8,0,0,1,1.28-1,2.53,2.53,0,0,1,1.06-.42c.28,0,.3.17,0,.59a8,8,0,0,1-1.17,1.44,13.82,13.82,0,0,1-1.84,1.56,5.56,5.56,0,0,1-2,1A19.41,19.41,0,0,1,30.18,22.17Z"/><path class="cls-2" d="M82.14,16.19a8.37,8.37,0,0,0,.11-3.52,1.38,1.38,0,0,0-1.6-1.19,3.16,3.16,0,0,0-1.5.72,16.77,16.77,0,0,0-1.85,1.74c-.66.72-1.34,1.53-2,2.43s-1.39,1.81-2.07,2.72q.94-1.86,2.08-4t2.31-4.2c.78-1.37,1.55-2.67,2.3-3.88s1.42-2.23,2-3c.13-.21.08-.48-.17-.8a3.89,3.89,0,0,0-1-.88,5.47,5.47,0,0,0-1.17-.61c-.39-.15-.64-.15-.73,0Q77.89,3,76.62,5.12T74,9.67q-1.35,2.46-2.69,5.1c-.89,1.75-1.7,3.44-2.42,5.05-.16.37-.32.72-.47,1.08a.39.39,0,0,0-.21-.36c-.17-.06-.46.12-.87.55l-.95.9-1.55,1.46-1.59,1.48c-.51.45-.86.77-1,.95a23.65,23.65,0,0,1,1.66-3.62c.68-1.23,1.36-2.37,2-3.41s1.24-1.94,1.72-2.67a5.21,5.21,0,0,0,.74-1.35,1.13,1.13,0,0,0-.2-.72,2.28,2.28,0,0,0-.62-.66,2.91,2.91,0,0,0-.92-.44,2.8,2.8,0,0,0-1.08-.1c-.23,0-.63.36-1.21,1S63,15.42,62.24,16.42l-2.5,3.24c-.89,1.14-1.73,2.22-2.53,3.23s-1.52,1.84-2.16,2.51-1.1,1-1.38,1-.2-.21,0-.69.5-1.08.89-1.81.85-1.52,1.37-2.39l1.49-2.45c.47-.76.86-1.41,1.18-1.95a5.94,5.94,0,0,0,.49-.91,1.66,1.66,0,0,0-.21-1,3,3,0,0,0-.69-.82,2.68,2.68,0,0,0-1-.53A2.82,2.82,0,0,0,56,13.74c-.17,0-.43.24-.78.68a18.54,18.54,0,0,0-1.2,1.76c-.45.73-.93,1.57-1.43,2.52s-1,1.94-1.41,3a29.57,29.57,0,0,0-1.13,3.09,15.44,15.44,0,0,0-.61,2.89,4.54,4.54,0,0,0,.09,1.59A4.61,4.61,0,0,0,50,30.4a2.43,2.43,0,0,0,.56.72.73.73,0,0,0,.45.23,3.86,3.86,0,0,0,1.81-.82,20.82,20.82,0,0,0,2.22-1.93c.79-.77,1.59-1.64,2.4-2.6s1.57-1.93,2.29-2.92c-.21.68-.4,1.34-.56,2a13.29,13.29,0,0,0-.33,1.8,9.41,9.41,0,0,0,0,1.88,4.29,4.29,0,0,0,.24,1.14,1.35,1.35,0,0,0,.36.56.49.49,0,0,0,.36.14,3.37,3.37,0,0,0,1.41-.88c.66-.57,1.36-1.22,2.1-1.94s1.46-1.44,2.15-2.14,1.17-1.21,1.45-1.53c.16-.17.3-.34.44-.52-.09.22-.17.44-.24.65a12.51,12.51,0,0,0-.78,3.13,3,3,0,0,0,.41,1.74,1.53,1.53,0,0,0,1.38.81.77.77,0,0,0,.46-.16,1.39,1.39,0,0,0,.26-.29,1.11,1.11,0,0,0,.14-.34c0-.11,0-.19,0-.22a26.9,26.9,0,0,1,2.75-5q1.64-2.37,3.17-4.23,1.8-2.13,3.71-4c.27-.09.35.07.25.48a7.83,7.83,0,0,1-.67,1.61A25.33,25.33,0,0,1,76.9,20c-.53.82-1.08,1.61-1.65,2.39a18,18,0,0,1-1.69,2,5.44,5.44,0,0,1-1.46,1.16.16.16,0,0,1-.2,0,.92.92,0,0,1-.14-.14.22.22,0,0,0-.13-.08c-.06,0-.15.05-.28.19a1.88,1.88,0,0,0-.44,1.1A3.13,3.13,0,0,0,71.06,28a2.53,2.53,0,0,0,.75,1.12,1.71,1.71,0,0,0,1.28.38,3.13,3.13,0,0,0,1.57-.78,12.54,12.54,0,0,0,1.82-1.87c.62-.76,1.24-1.61,1.87-2.55s1.2-1.91,1.72-2.89,1-1.93,1.33-2.83A12.16,12.16,0,0,0,82.14,16.19Z"/><path class="cls-2" d="M95.52,1.76a2.53,2.53,0,0,0-2.1-.19,2.53,2.53,0,0,0-1.07.86,13.38,13.38,0,0,0-1.17,1.66,13,13,0,0,0-1,1.89,3.66,3.66,0,0,0-.36,1.48,1.73,1.73,0,0,0,.31.94,2.27,2.27,0,0,0,.58.61,5.23,5.23,0,0,0,.88.47A28,28,0,0,1,94,5.79a12.53,12.53,0,0,1,1.39-1.5L96,3.74c.11-.09.16-.37.15-.83A1.53,1.53,0,0,0,95.52,1.76Z"/><path class="cls-2" d="M90.17,18.57c-.17-.07-.45.11-.83.54-.15.18-.46.48-.93.92l-1.52,1.44c-.56.53-1.09,1-1.6,1.47l-1.08,1a28.87,28.87,0,0,1,1.64-3.62c.68-1.26,1.32-2.42,2-3.48s1.17-2,1.63-2.71a5.14,5.14,0,0,0,.73-1.42,1.39,1.39,0,0,0-.72-1.3,2.9,2.9,0,0,0-1.91-.45c-.31,0-.8.53-1.47,1.49A31.35,31.35,0,0,0,84,16a40.35,40.35,0,0,0-2,4.51,18.05,18.05,0,0,0-1.1,4.39,8.4,8.4,0,0,0,0,2.15,2.91,2.91,0,0,0,.37,1.1.77.77,0,0,0,.5.4,1.46,1.46,0,0,0,.44,0,3,3,0,0,0,1.34-.88c.62-.57,1.28-1.21,2-1.93s1.37-1.43,2-2.13,1.11-1.2,1.4-1.52a5.82,5.82,0,0,0,1-1.55,4.55,4.55,0,0,0,.41-1.35C90.42,18.85,90.35,18.63,90.17,18.57Z"/><path class="cls-1" d="M196.38,24.38a1.39,1.39,0,0,0-.43-.18,2.63,2.63,0,0,0-.49,0h-.63v2.4a.33.33,0,0,0,.15,0l.19,0,.22,0h.21a1.4,1.4,0,0,0,.47-.08,1,1,0,0,0,.38-.24,1.16,1.16,0,0,0,.26-.39,1.45,1.45,0,0,0,.09-.54,1.5,1.5,0,0,0-.11-.62A1,1,0,0,0,196.38,24.38Z"/><path class="cls-1" d="M195.52,23.54l.28,0a1.47,1.47,0,0,0,.6-.46,1.22,1.22,0,0,0,.24-.77,1.32,1.32,0,0,0-.08-.52.85.85,0,0,0-.23-.34.84.84,0,0,0-.34-.17,1.47,1.47,0,0,0-.42-.05h-.44l-.3,0v2.31h.69Z"/><path class="cls-1" d="M180.46,22a1.62,1.62,0,0,0-.53-.6,1.43,1.43,0,0,0-.86-.23h-.41l-.2,0h-.14V26.6l.13,0H179a1.56,1.56,0,0,0,.87-.23,1.67,1.67,0,0,0,.55-.6,3.21,3.21,0,0,0,.29-.89,7.13,7.13,0,0,0,.08-1.06,6.37,6.37,0,0,0-.08-1A3,3,0,0,0,180.46,22Z"/><path class="cls-1" d="M169.84,22a1.62,1.62,0,0,0-.44-.6,1,1,0,0,0-.67-.23,1.15,1.15,0,0,0-1.06.68,4.55,4.55,0,0,0-.37,2.07,7.23,7.23,0,0,0,.08,1.06,3.9,3.9,0,0,0,.25.87,1.62,1.62,0,0,0,.44.6,1,1,0,0,0,.66.23A1.16,1.16,0,0,0,169.8,26a4.44,4.44,0,0,0,.37-2.08,7,7,0,0,0-.08-1A3.64,3.64,0,0,0,169.84,22Z"/><path class="cls-1" d="M163.08,22.39a1.36,1.36,0,0,0-.25-.85.91.91,0,0,0-.77-.34h-.39l-.3,0v2.48h.56a1.11,1.11,0,0,0,.85-.33A1.47,1.47,0,0,0,163.08,22.39Z"/><path class="cls-1" d="M128.4,22.39a1.37,1.37,0,0,0-.26-.85.9.9,0,0,0-.77-.34H127l-.3,0v2.48h.56a1.11,1.11,0,0,0,.85-.33A1.47,1.47,0,0,0,128.4,22.39Z"/><polygon class="cls-1" points="239.57 21.71 239.55 21.71 239.37 22.73 238.82 24.75 240.32 24.75 239.75 22.71 239.57 21.71"/><polygon class="cls-3" points="111.53 24.15 113.57 24.15 113.57 23.5 111.53 23.5 111.53 21.27 113.75 21.27 113.75 20.63 110.82 20.63 110.82 27.2 113.79 27.2 113.79 26.55 111.53 26.55 111.53 24.15"/><polygon class="cls-3" points="117.41 20.63 116.7 20.63 116.7 27.2 119.87 27.2 119.87 26.55 117.41 26.55 117.41 20.63"/><path class="cls-3" d="M128,24.23a1.54,1.54,0,0,0,.86-.63,2.2,2.2,0,0,0,.32-1.25,2.17,2.17,0,0,0-.15-.86,1.38,1.38,0,0,0-.39-.55,1.42,1.42,0,0,0-.57-.3,2.61,2.61,0,0,0-.69-.09l-.69,0a4.6,4.6,0,0,0-.68.11V27.2h.71v-3l.7.14,1.41,2.86h.82l-1.3-2.62Zm-.72-.5h-.56V21.25l.3,0h.39a.9.9,0,0,1,.77.34,1.37,1.37,0,0,1,.26.85,1.47,1.47,0,0,1-.31,1A1.11,1.11,0,0,1,127.24,23.73Z"/><polygon class="cls-3" points="133.04 24.15 135.08 24.15 135.08 23.5 133.04 23.5 133.04 21.27 135.26 21.27 135.26 20.63 132.33 20.63 132.33 27.2 135.3 27.2 135.3 26.55 133.04 26.55 133.04 24.15"/><path class="cls-3" d="M140,24.35l1.21.18v1.9a1.29,1.29,0,0,1-.8.24,1.42,1.42,0,0,1-1.23-.67,3.84,3.84,0,0,1-.45-2.09,5.24,5.24,0,0,1,.14-1.29,2.59,2.59,0,0,1,.38-.85,1.48,1.48,0,0,1,.54-.47,1.52,1.52,0,0,1,.63-.14,2.64,2.64,0,0,1,.6.06,1.5,1.5,0,0,1,.45.16l.17-.64a2.2,2.2,0,0,0-.53-.17,3.92,3.92,0,0,0-.75-.06,2.08,2.08,0,0,0-.88.19,1.88,1.88,0,0,0-.76.6,3,3,0,0,0-.53,1.05,5.1,5.1,0,0,0-.2,1.56,6.28,6.28,0,0,0,.16,1.54,3.18,3.18,0,0,0,.47,1.05,1.8,1.8,0,0,0,.73.62,2.24,2.24,0,0,0,1,.2,3.06,3.06,0,0,0,.84-.13,1.8,1.8,0,0,0,.67-.37v-2.9H140Z"/><rect class="cls-3" x="144.83" y="20.62" width="0.7" height="6.58"/><path class="cls-3" d="M151.16,24.06a6.1,6.1,0,0,0-.61-.51c-.21-.15-.42-.3-.6-.45a2.36,2.36,0,0,1-.47-.48,1,1,0,0,1-.19-.59.86.86,0,0,1,.24-.62,1,1,0,0,1,.75-.25,3.13,3.13,0,0,1,.73.08,2.18,2.18,0,0,1,.49.19l.22-.62a1.93,1.93,0,0,0-.59-.21,3.49,3.49,0,0,0-.84-.09,1.92,1.92,0,0,0-1.23.38,1.42,1.42,0,0,0-.48,1.17,1.8,1.8,0,0,0,.19.84,2.36,2.36,0,0,0,.47.61,4.09,4.09,0,0,0,.61.49c.21.15.42.3.6.45a2.47,2.47,0,0,1,.47.51,1.05,1.05,0,0,1,.19.64,1,1,0,0,1-.33.81,1.35,1.35,0,0,1-.85.26,2.4,2.4,0,0,1-.74-.11,2,2,0,0,1-.5-.23l-.25.65a2.5,2.5,0,0,0,.58.23,3.38,3.38,0,0,0,.93.11,1.94,1.94,0,0,0,1.38-.47,1.76,1.76,0,0,0,.49-1.3,1.87,1.87,0,0,0-.19-.85A2.93,2.93,0,0,0,151.16,24.06Z"/><polygon class="cls-3" points="154.14 21.27 155.75 21.27 155.75 27.2 156.46 27.2 156.46 21.27 158.08 21.27 158.08 20.63 154.14 20.63 154.14 21.27"/><path class="cls-3" d="M162.64,24.23a1.47,1.47,0,0,0,.86-.63,2.13,2.13,0,0,0,.33-1.25,2.17,2.17,0,0,0-.15-.86,1.61,1.61,0,0,0-.39-.55,1.42,1.42,0,0,0-.57-.3,2.63,2.63,0,0,0-.7-.09l-.68,0a4.39,4.39,0,0,0-.68.11V27.2h.71v-3l.7.14,1.41,2.86h.82L163,24.58Zm-.71-.5h-.56V21.25l.3,0h.39a.91.91,0,0,1,.77.34,1.36,1.36,0,0,1,.25.85,1.47,1.47,0,0,1-.3,1A1.11,1.11,0,0,1,161.93,23.73Z"/><path class="cls-3" d="M170.41,21.43a1.9,1.9,0,0,0-.67-.68,2,2,0,0,0-1-.24,1.78,1.78,0,0,0-1.63.87,4.81,4.81,0,0,0-.54,2.53,7.57,7.57,0,0,0,.12,1.41,3.14,3.14,0,0,0,.38,1.07,1.8,1.8,0,0,0,.68.69,1.91,1.91,0,0,0,1,.24,1.79,1.79,0,0,0,1.64-.87,4.82,4.82,0,0,0,.54-2.54,7.57,7.57,0,0,0-.12-1.41A3.45,3.45,0,0,0,170.41,21.43ZM169.8,26a1.16,1.16,0,0,1-1.07.68,1,1,0,0,1-.66-.23,1.62,1.62,0,0,1-.44-.6,3.9,3.9,0,0,1-.25-.87,7.23,7.23,0,0,1-.08-1.06,4.55,4.55,0,0,1,.37-2.07,1.15,1.15,0,0,1,1.06-.68,1,1,0,0,1,.67.23,1.62,1.62,0,0,1,.44.6,3.64,3.64,0,0,1,.25.88,7,7,0,0,1,.08,1A4.44,4.44,0,0,1,169.8,26Z"/><path class="cls-3" d="M181,21.46a2,2,0,0,0-.78-.68,2.74,2.74,0,0,0-1.17-.23h-.71l-.37,0-.34,0v6.59l.27,0,.38,0,.39,0H179a2.54,2.54,0,0,0,1.23-.28,2.24,2.24,0,0,0,.8-.76,3,3,0,0,0,.42-1.09,6,6,0,0,0,.13-1.29,6.44,6.44,0,0,0-.13-1.37A3,3,0,0,0,181,21.46Zm-.26,3.46a3.21,3.21,0,0,1-.29.89,1.67,1.67,0,0,1-.55.6,1.56,1.56,0,0,1-.87.23h-.56l-.13,0V21.24h.14l.2,0h.41a1.43,1.43,0,0,1,.86.23,1.62,1.62,0,0,1,.53.6,3,3,0,0,1,.26.85,6.37,6.37,0,0,1,.08,1A7.13,7.13,0,0,1,180.72,24.92Z"/><polygon class="cls-3" points="185.1 24.15 187.14 24.15 187.14 23.5 185.1 23.5 185.1 21.27 187.32 21.27 187.32 20.63 184.4 20.63 184.4 27.2 187.37 27.2 187.37 26.55 185.1 26.55 185.1 24.15"/><path class="cls-3" d="M197.2,24.2a1.17,1.17,0,0,0-.37-.3,2.23,2.23,0,0,0-.43-.16v0a1.26,1.26,0,0,0,.45-.26,1.57,1.57,0,0,0,.3-.38,2,2,0,0,0,.18-.46,2.12,2.12,0,0,0,.06-.49,1.74,1.74,0,0,0-.16-.81,1.18,1.18,0,0,0-.41-.47,1.59,1.59,0,0,0-.57-.23,3.47,3.47,0,0,0-.64-.06,7,7,0,0,0-.82,0,4.8,4.8,0,0,0-.66.09v6.48a2.7,2.7,0,0,0,.35.07l.39,0,.37,0h.3a2.76,2.76,0,0,0,.77-.11,2.09,2.09,0,0,0,.64-.35,1.74,1.74,0,0,0,.44-.61,2.34,2.34,0,0,0,.16-.88,2.18,2.18,0,0,0-.1-.66A1.41,1.41,0,0,0,197.2,24.2Zm-2.37-3,.3,0h.44a1.47,1.47,0,0,1,.42.05.84.84,0,0,1,.34.17.85.85,0,0,1,.23.34,1.32,1.32,0,0,1,.08.52,1.22,1.22,0,0,1-.24.77,1.47,1.47,0,0,1-.6.46l-.28,0h-.69Zm1.88,4.68a1.16,1.16,0,0,1-.26.39,1,1,0,0,1-.38.24,1.4,1.4,0,0,1-.47.08h-.21l-.22,0-.19,0a.33.33,0,0,1-.15,0v-2.4h.63a2.63,2.63,0,0,1,.49,0,1.39,1.39,0,0,1,.43.18,1,1,0,0,1,.31.38,1.5,1.5,0,0,1,.11.62A1.45,1.45,0,0,1,196.71,25.92Z"/><rect class="cls-3" x="200.55" y="20.62" width="0.7" height="6.58"/><path class="cls-3" d="M207.28,26.58a1.7,1.7,0,0,1-.57.09,1.44,1.44,0,0,1-1.25-.69,3.73,3.73,0,0,1-.47-2.07,5.25,5.25,0,0,1,.13-1.28,2.59,2.59,0,0,1,.36-.85,1.28,1.28,0,0,1,.52-.47,1.32,1.32,0,0,1,.62-.15,2.58,2.58,0,0,1,.58.06,1.43,1.43,0,0,1,.44.16l.17-.64a2.35,2.35,0,0,0-.51-.16,3.18,3.18,0,0,0-.75-.07,2.18,2.18,0,0,0-.86.18,1.93,1.93,0,0,0-.74.58,3.17,3.17,0,0,0-.51,1.06,5.55,5.55,0,0,0-.19,1.58,5.9,5.9,0,0,0,.17,1.56,3,3,0,0,0,.47,1.06,1.9,1.9,0,0,0,.73.6,2.33,2.33,0,0,0,.92.19,3.08,3.08,0,0,0,.75-.09,1.3,1.3,0,0,0,.59-.28l-.17-.58A1.72,1.72,0,0,1,207.28,26.58Z"/><rect class="cls-3" x="210.74" y="20.62" width="0.7" height="6.58"/><path class="cls-3" d="M217.48,26.58a1.7,1.7,0,0,1-.57.09,1.44,1.44,0,0,1-1.25-.69,3.64,3.64,0,0,1-.47-2.07,5.25,5.25,0,0,1,.13-1.28,2.59,2.59,0,0,1,.35-.85,1.42,1.42,0,0,1,.52-.47,1.35,1.35,0,0,1,.62-.15,2.46,2.46,0,0,1,.58.06,1.5,1.5,0,0,1,.45.16l.17-.64a2.28,2.28,0,0,0-.52-.16,3,3,0,0,0-.74-.07,2.14,2.14,0,0,0-.86.18,1.86,1.86,0,0,0-.74.58,3,3,0,0,0-.51,1.06,5.52,5.52,0,0,0-.2,1.58,6.35,6.35,0,0,0,.17,1.56,3,3,0,0,0,.48,1.06,1.83,1.83,0,0,0,.73.6,2.29,2.29,0,0,0,.92.19,3.08,3.08,0,0,0,.75-.09,1.35,1.35,0,0,0,.59-.28l-.17-.58A1.91,1.91,0,0,1,217.48,26.58Z"/><polygon class="cls-3" points="221.5 20.63 220.8 20.63 220.8 27.2 223.97 27.2 223.97 26.55 221.5 26.55 221.5 20.63"/><polygon class="cls-3" points="227.25 24.15 229.29 24.15 229.29 23.5 227.25 23.5 227.25 21.27 229.47 21.27 229.47 20.63 226.55 20.63 226.55 27.2 229.52 27.2 229.52 26.55 227.25 26.55 227.25 24.15"/><polygon class="cls-3" points="231.96 21.27 233.58 21.27 233.58 27.2 234.28 27.2 234.28 21.27 235.9 21.27 235.9 20.63 231.96 20.63 231.96 21.27"/><path class="cls-3" d="M239.4,20.52l-2,6.68h.7l.52-1.84h1.86L241,27.2h.74l-2-6.68Zm-.58,4.23.55-2,.18-1h0l.18,1,.57,2Z"/><path class="cls-3" d="M246.69,24.06a6.1,6.1,0,0,0-.61-.51l-.6-.45a2.36,2.36,0,0,1-.47-.48,1,1,0,0,1-.19-.59.86.86,0,0,1,.24-.62,1,1,0,0,1,.76-.25,3.11,3.11,0,0,1,.72.08,2,2,0,0,1,.49.19l.22-.62a1.83,1.83,0,0,0-.59-.21,3.49,3.49,0,0,0-.84-.09,1.94,1.94,0,0,0-1.23.38,1.42,1.42,0,0,0-.48,1.17,1.8,1.8,0,0,0,.19.84,2.36,2.36,0,0,0,.47.61,4.09,4.09,0,0,0,.61.49c.21.15.42.3.6.45a2.47,2.47,0,0,1,.47.51,1.05,1.05,0,0,1,.19.64,1,1,0,0,1-.33.81,1.35,1.35,0,0,1-.85.26,2.4,2.4,0,0,1-.74-.11,2,2,0,0,1-.5-.23L244,27a2.5,2.5,0,0,0,.58.23,3.38,3.38,0,0,0,.93.11,1.94,1.94,0,0,0,1.38-.47,1.76,1.76,0,0,0,.49-1.3,1.87,1.87,0,0,0-.19-.85A2.93,2.93,0,0,0,246.69,24.06Z"/></g></g></svg>