<svg xmlns="http://www.w3.org/2000/svg" viewBox="0 0 172.07 208.18"><defs><style>.cls-1{fill:none;}.cls-2{fill:#ffd524;}.cls-3{fill:#76a5a4;}.cls-4{fill:#ae0004;}</style></defs><g id="Capa_2" data-name="Capa 2"><g id="Bike_Imagen" data-name="Bike_Imagen Imagen"><path class="cls-1" d="M103.33,205.25a1.09,1.09,0,0,0-.43-.18,2.63,2.63,0,0,0-.49,0h-.63v2.41l.14,0,.2,0h.43a1.4,1.4,0,0,0,.47-.08,1.36,1.36,0,0,0,.38-.24,1.16,1.16,0,0,0,.26-.39,1.53,1.53,0,0,0,.09-.54,1.58,1.58,0,0,0-.11-.63A1,1,0,0,0,103.33,205.25Z"/><path class="cls-1" d="M94.51,56.69l-2-4.27L93,62l2.58-4A3.34,3.34,0,0,1,94.51,56.69Z"/><polygon class="cls-1" points="84.21 75.63 84.77 75.59 84.71 74.92 84.21 75.63"/><path class="cls-1" d="M97.83,29.72a6.18,6.18,0,0,0-5.34-6.9,5.11,5.11,0,0,0-.78-.05,6.17,6.17,0,1,0,6.12,7Z"/><path class="cls-1" d="M58.57,144.7a15,15,0,0,0,2.09-2.56c.45-.75.42-1.1-.08-1.06a4.63,4.63,0,0,0-1.91.74,15.65,15.65,0,0,0-2.28,1.79A28.26,28.26,0,0,0,54,146.16a28.69,28.69,0,0,0-2.26,3.12,10.59,10.59,0,0,0,3.55-1.77A26.56,26.56,0,0,0,58.57,144.7Z"/><path class="cls-1" d="M102.47,204.4a1.14,1.14,0,0,0,.28,0,1.36,1.36,0,0,0,.59-.45,1.2,1.2,0,0,0,.25-.78,1.35,1.35,0,0,0-.08-.52.81.81,0,0,0-.23-.33.84.84,0,0,0-.34-.17,1.47,1.47,0,0,0-.42-.06l-.44,0-.3,0v2.3h.69Z"/><path class="cls-1" d="M87.41,202.89a1.8,1.8,0,0,0-.53-.6,1.51,1.51,0,0,0-.86-.23h-.41l-.2,0-.14,0v5.36H86a1.56,1.56,0,0,0,.87-.22,1.63,1.63,0,0,0,.55-.61,2.84,2.84,0,0,0,.28-.88,6.17,6.17,0,0,0,0-2A3.1,3.1,0,0,0,87.41,202.89Z"/><path class="cls-1" d="M76.79,202.86a1.58,1.58,0,0,0-.44-.61,1,1,0,0,0-.67-.22,1.15,1.15,0,0,0-1.06.67,4.47,4.47,0,0,0-.37,2.08,7,7,0,0,0,.08,1.05,4,4,0,0,0,.25.88,1.62,1.62,0,0,0,.44.6,1,1,0,0,0,.66.22,1.15,1.15,0,0,0,1.07-.67,4.47,4.47,0,0,0,.37-2.08,7,7,0,0,0-.08-1A3.39,3.39,0,0,0,76.79,202.86Z"/><path class="cls-1" d="M70,203.26a1.39,1.39,0,0,0-.25-.86.94.94,0,0,0-.77-.34l-.39,0a1.68,1.68,0,0,0-.31,0v2.47h.57a1.08,1.08,0,0,0,.84-.33A1.39,1.39,0,0,0,70,203.26Z"/><path class="cls-1" d="M123.28,49.69c.08,0,0-.1-.08-.19C123.22,49.61,123.24,49.69,123.28,49.69Z"/><path class="cls-1" d="M35.35,203.26a1.4,1.4,0,0,0-.26-.86.92.92,0,0,0-.77-.34l-.39,0a1.68,1.68,0,0,0-.3,0v2.47h.56a1.11,1.11,0,0,0,.85-.33A1.44,1.44,0,0,0,35.35,203.26Z"/><path class="cls-1" d="M75.12,55.09a3.51,3.51,0,0,1-1.4,1.07l-2.18.89,6.8,11,1.38.2a4.16,4.16,0,0,1-.91-2.07L80,48.74Z"/><path class="cls-1" d="M122.84,49.33H123l-.1,0Z"/><path class="cls-1" d="M69.18,33.9c-.45-.79-2.17-.46-3-.32a2.21,2.21,0,0,1-.27.12c-2.21.77.43,3.22,2,2.71C68.65,36.18,69.62,34.69,69.18,33.9Z"/><path class="cls-1" d="M108,40.81c3,.71,4.21-3,2.41-4.88a3.91,3.91,0,0,1-.53-.74,3.53,3.53,0,0,1-1.32.55C105.91,36.26,104.81,40,108,40.81Z"/><path class="cls-1" d="M104,46.71a10,10,0,0,1-5-8.3,11.85,11.85,0,0,1-7.21,2.46,11.19,11.19,0,0,1-1.52-.1c-.19,0-.37-.07-.56-.1l-.11.88,3.22,0,.13,0A3.35,3.35,0,0,1,95.55,43s0,0,0,0a3.52,3.52,0,0,1,.28.46l4.21,9.16,1.56.6a22,22,0,0,1,1.67-5.64A2.77,2.77,0,0,1,104,46.71Z"/><polygon class="cls-1" points="146.52 202.58 146.5 202.58 146.32 203.59 145.77 205.62 147.27 205.62 146.7 203.57 146.52 202.58"/><path class="cls-2" d="M24.15,109.3c-7.66-21.32-11.75-48.51-11-73A122.12,122.12,0,0,1,56.63,10.86C92.09-.65,126.33,8,158.44,36.49c.58,5.73,2.57,33.34-9,65.86a3.06,3.06,0,0,0,1.73,3.89,2.9,2.9,0,0,0,3.76-1.79c13.55-37.92,9.41-68.64,9.22-69.93a3,3,0,0,0-1-1.84C120.8-5.44,80.9-3.37,54.88,5.07A125.25,125.25,0,0,0,8.23,32.8a3.09,3.09,0,0,0-.88,2c-1,25.55,3.26,54.18,11.31,76.57a2.93,2.93,0,0,0,2.75,2,2.74,2.74,0,0,0,.69-.1c.45-.26.9-.53,1.36-.78A3.08,3.08,0,0,0,24.15,109.3Z"/><path class="cls-2" d="M48.38,92.67c.5,3.37,5.62,1.94,5.12-1.41q-.81-5.52-2.09-11c-.78-3.32-5.9-1.91-5.12,1.41Q47.57,87.15,48.38,92.67Z"/><path class="cls-2" d="M57.85,79.77a3.55,3.55,0,0,0-2.42-6.65A4.91,4.91,0,0,0,52,75.76a3.86,3.86,0,0,0-.35,2.73,3.58,3.58,0,0,0,1.62,2.11A3.72,3.72,0,0,0,57.85,79.77Z"/><path class="cls-2" d="M44.56,76.4a2.69,2.69,0,0,0,3.26,1.86,8.91,8.91,0,0,0,3-1.73,2.59,2.59,0,0,0,.63-2.69A2.7,2.7,0,0,0,51.54,70c1.5.39,3.39,0,4.06-1.56l2.24-5.13c.74-1.69.55-3.88-1.27-4.84-1.53-.81-4-.54-4.84,1.27s-1.5,3.42-2.24,5.13A3.84,3.84,0,0,0,50,69.18a2.69,2.69,0,0,0-1.05,0c-1.62.37-3.88-1.66-5.27-2.3-2.1-1-4.4-1.38-6.43,0-2.8,1.92-.15,6.52,2.68,4.59a2.25,2.25,0,0,0,.32-.24,2.86,2.86,0,0,1,1,.33c1,.42,1.91,1.08,2.87,1.57.42.22.84.41,1.25.59A2.49,2.49,0,0,0,44.56,76.4Z"/><path class="cls-2" d="M50.71,57.46a7.21,7.21,0,0,0-2.41-14,3.47,3.47,0,0,0-3.2,2.09,2.75,2.75,0,0,0-1.2.47,6.17,6.17,0,0,0-1.57,8.62A7.32,7.32,0,0,0,50.71,57.46Z"/><path class="cls-2" d="M71.2,49.15a25.64,25.64,0,0,0-.68-3.36,3.64,3.64,0,0,0-2.13-2.34A9.28,9.28,0,0,0,70,43.17c4.36-1.24,6.83-6.08,6.13-10.39-.93-5.76-6.43-6.64-11.27-6.09h-.06l-.63.08a2.61,2.61,0,0,0-1.31.61,8.54,8.54,0,0,0-4.53,9.67c.92,3.48,4.22,5.8,7.72,6.32a3.58,3.58,0,0,0-2.33,4.29,17.51,17.51,0,0,1,.7,4,4.7,4.7,0,0,0,.19.92l5.75-2.35ZM65.91,33.7a2.21,2.21,0,0,0,.27-.12c.83-.14,2.55-.47,3,.32s-.53,2.28-1.25,2.51C66.34,36.92,63.7,34.47,65.91,33.7Z"/><path class="cls-2" d="M69.87,84.44a79.3,79.3,0,0,0-2.1-8.33,2.56,2.56,0,0,0-3-1.8l.89-.8a2.67,2.67,0,0,0,0-3.75,2.72,2.72,0,0,0-3.75,0l-1.94,1.75a2.63,2.63,0,0,0,2.74,4.35,2.52,2.52,0,0,0,0,1.66,79.3,79.3,0,0,1,2.1,8.33C65.4,89.2,70.52,87.78,69.87,84.44Z"/><path class="cls-2" d="M62.27,109c1.77,4.18,7.87.58,6.11-3.57a92.17,92.17,0,0,1-6.23-22.46c-.68-4.48-7.5-2.58-6.83,1.89A99.58,99.58,0,0,0,62.27,109Z"/><path class="cls-2" d="M108.79,70a2.71,2.71,0,0,0-3.26,1.86q-1.11,2.65-2.2,5.32l3,1.85a3.32,3.32,0,0,1,1.31,1.52l3-7.28A2.67,2.67,0,0,0,108.79,70Z"/><path class="cls-2" d="M115.51,100.4a134.78,134.78,0,0,1,5.13-17.27c1.52-4.31-5.32-6.16-6.82-1.88a136.45,136.45,0,0,0-5.14,17.27C107.74,103,114.56,104.86,115.51,100.4Z"/><path class="cls-2" d="M124,72.76l.31-.25c.71-.32,1.4-.66,2-1,1.17-.56,2.32-1.18,3.52-1.67.31-.12.63-.22.95-.33l.51-.13.25,0c4.54.37,4.51-6.71,0-7.08a7.28,7.28,0,0,0-2.76.37c-.48-2-1-4-1.69-5.91a4.13,4.13,0,0,0-.81-1.36,7.3,7.3,0,0,0,2.48-2.24,8.43,8.43,0,0,0-.22-9.22,3.43,3.43,0,0,0-3.74-1.52,3.15,3.15,0,0,0-4.43-.89,9,9,0,0,0-4.35,7.57A7.22,7.22,0,0,0,120.68,56a3.2,3.2,0,0,0-.35,2.68,65.2,65.2,0,0,1,1.94,7c-.31.14-.63.3-1,.43s-.62.23-.94.33a4.77,4.77,0,0,1-.51.13h-.25c-3-.25-4,2.82-3,5a3.4,3.4,0,0,0-3,2.52,3.6,3.6,0,0,0,2.47,4.36l3.15.7a3.61,3.61,0,0,0,4.35-2.47,3.94,3.94,0,0,0-.63-3.11l0,0Zm-.74-23.07s-.06-.08-.08-.19C123.29,49.59,123.36,49.67,123.28,49.69Zm-.44-.36h0l.1,0Z"/><path class="cls-2" d="M108.64,65.38a1.83,1.83,0,0,0-2.18,1.24,1.78,1.78,0,0,0,1.24,2.17l3.64.57a1.83,1.83,0,0,0,2.18-1.24A1.78,1.78,0,0,0,112.28,66Z"/><polygon class="cls-2" points="108.47 23.49 108.47 23.49 108.47 23.49 108.47 23.49"/><path class="cls-2" d="M103.55,30.45a11.86,11.86,0,0,1-4.62,8,10,10,0,0,0,5,8.3,2.77,2.77,0,0,0-.68.89,22,22,0,0,0-1.67,5.64l2.59,1a3.36,3.36,0,0,1,2,2.13l1.57.05a4.36,4.36,0,0,0,.77-2.09c0-.11,0-.18,0-.23s0-.1,0-.19c.09-.39.16-.78.27-1.17s.19-.66.3-1l.18-.49c-.14.32-.13.28.05-.1a4.26,4.26,0,0,0,.13-3.32A10.14,10.14,0,0,0,117,43.16a10.27,10.27,0,0,0-1.62-12.24,3.2,3.2,0,0,0-4.77-.05,3.56,3.56,0,0,0-4-2,9.16,9.16,0,0,0-3.11,1.25c0,.09,0,.19,0,.29Zm5,5.29a3.53,3.53,0,0,0,1.32-.55,3.91,3.91,0,0,0,.53.74c1.8,1.91.54,5.59-2.41,4.88C104.81,40,105.91,36.26,108.56,35.74Z"/><path class="cls-2" d="M116,55.77l.27-.86a3.56,3.56,0,0,0-2.47-4.35A3.62,3.62,0,0,0,109.47,53c-.08.29-.17.57-.26.85A3.54,3.54,0,1,0,116,55.77Z"/><path class="cls-2" d="M101.81,169.93a171.82,171.82,0,0,1-15.71,9,122.26,122.26,0,0,1-15.82-9A2.93,2.93,0,0,0,67,174.83a116.07,116.07,0,0,0,18,10.06,3,3,0,0,0,1.11.22,3,3,0,0,0,1.3-.31,176.71,176.71,0,0,0,17.53-10,2.93,2.93,0,0,0-3.19-4.92Z"/><polygon class="cls-3" points="18.48 205.01 20.52 205.01 20.52 204.37 18.48 204.37 18.48 202.14 20.7 202.14 20.7 201.49 17.77 201.49 17.77 208.07 20.74 208.07 20.74 207.42 18.48 207.42 18.48 205.01"/><polygon class="cls-3" points="24.36 201.49 23.65 201.49 23.65 208.07 26.82 208.07 26.82 207.42 24.36 207.42 24.36 201.49"/><path class="cls-3" d="M34.91,205.1a1.57,1.57,0,0,0,.85-.63,2.54,2.54,0,0,0,.18-2.11,1.4,1.4,0,0,0-1-.86,2.63,2.63,0,0,0-.7-.09c-.2,0-.43,0-.68,0a4.6,4.6,0,0,0-.68.11v6.51h.71v-3l.7.14,1.41,2.87h.82l-1.3-2.62Zm-.72-.51h-.56v-2.47a1.68,1.68,0,0,1,.3,0l.39,0a.92.92,0,0,1,.77.34,1.4,1.4,0,0,1,.26.86,1.44,1.44,0,0,1-.31,1A1.11,1.11,0,0,1,34.19,204.59Z"/><polygon class="cls-3" points="39.99 205.01 42.03 205.01 42.03 204.37 39.99 204.37 39.99 202.14 42.21 202.14 42.21 201.49 39.28 201.49 39.28 208.07 42.25 208.07 42.25 207.42 39.99 207.42 39.99 205.01"/><path class="cls-3" d="M47,205.22l1.21.18v1.9a1.3,1.3,0,0,1-.81.23,1.37,1.37,0,0,1-1.22-.67,3.8,3.8,0,0,1-.45-2.08,5.33,5.33,0,0,1,.14-1.3,2.68,2.68,0,0,1,.38-.85,1.45,1.45,0,0,1,.54-.46,1.38,1.38,0,0,1,.63-.14,2.69,2.69,0,0,1,.6.05,1.83,1.83,0,0,1,.45.16l.16-.64a2,2,0,0,0-.52-.16,3.92,3.92,0,0,0-.75-.06,2.08,2.08,0,0,0-.88.19,1.94,1.94,0,0,0-.76.59,3,3,0,0,0-.53,1.05,5.17,5.17,0,0,0-.2,1.57,6.25,6.25,0,0,0,.16,1.53,3.15,3.15,0,0,0,.47,1.06,1.78,1.78,0,0,0,.73.61,2.1,2.1,0,0,0,1,.2,2.72,2.72,0,0,0,.84-.13,1.56,1.56,0,0,0,.67-.37v-2.89H47Z"/><rect class="cls-3" x="51.78" y="201.49" width="0.7" height="6.58"/><path class="cls-3" d="M58.11,204.93a4.23,4.23,0,0,0-.61-.51c-.21-.16-.42-.31-.6-.46a2.36,2.36,0,0,1-.47-.48.92.92,0,0,1-.19-.58.88.88,0,0,1,.24-.63,1,1,0,0,1,.75-.24,2.67,2.67,0,0,1,.73.08,2.18,2.18,0,0,1,.49.19l.22-.62a2.21,2.21,0,0,0-.59-.22,4.2,4.2,0,0,0-.84-.08,1.86,1.86,0,0,0-1.23.38,1.39,1.39,0,0,0-.48,1.17,1.78,1.78,0,0,0,.19.83,2.42,2.42,0,0,0,.47.62,4.85,4.85,0,0,0,.61.49c.21.15.42.3.6.45a2.21,2.21,0,0,1,.47.5,1.07,1.07,0,0,1,.19.64,1,1,0,0,1-.33.81,1.29,1.29,0,0,1-.85.26,2.1,2.1,0,0,1-.74-.11,1.56,1.56,0,0,1-.5-.23l-.25.65a2.47,2.47,0,0,0,.58.24,3.43,3.43,0,0,0,.93.1,1.9,1.9,0,0,0,1.38-.47,1.73,1.73,0,0,0,.49-1.3,1.86,1.86,0,0,0-.19-.84A2.71,2.71,0,0,0,58.11,204.93Z"/><polygon class="cls-3" points="61.09 202.14 62.7 202.14 62.7 208.07 63.41 208.07 63.41 202.14 65.03 202.14 65.03 201.49 61.09 201.49 61.09 202.14"/><path class="cls-3" d="M69.59,205.1a1.56,1.56,0,0,0,.86-.63,2.54,2.54,0,0,0,.18-2.11,1.65,1.65,0,0,0-.39-.56,1.42,1.42,0,0,0-.57-.3,2.63,2.63,0,0,0-.7-.09c-.2,0-.43,0-.68,0a4.39,4.39,0,0,0-.68.11v6.51h.7v-3l.71.14,1.41,2.87h.82L70,205.45Zm-.71-.51h-.57v-2.47a1.68,1.68,0,0,1,.31,0l.39,0a.94.94,0,0,1,.77.34,1.69,1.69,0,0,1-.06,1.86A1.08,1.08,0,0,1,68.88,204.59Z"/><path class="cls-3" d="M77.36,202.3a1.82,1.82,0,0,0-.67-.68,2,2,0,0,0-1-.24,1.79,1.79,0,0,0-1.63.86,4.85,4.85,0,0,0-.54,2.54,7.57,7.57,0,0,0,.12,1.41,3.14,3.14,0,0,0,.38,1.07,1.82,1.82,0,0,0,.67.68,2,2,0,0,0,1,.24,1.82,1.82,0,0,0,1.64-.86,4.87,4.87,0,0,0,.54-2.54,7.57,7.57,0,0,0-.12-1.41A3.36,3.36,0,0,0,77.36,202.3Zm-.61,4.56a1.15,1.15,0,0,1-1.07.67,1,1,0,0,1-.66-.22,1.62,1.62,0,0,1-.44-.6,4,4,0,0,1-.25-.88,7,7,0,0,1-.08-1.05,4.47,4.47,0,0,1,.37-2.08,1.15,1.15,0,0,1,1.06-.67,1,1,0,0,1,.67.22,1.58,1.58,0,0,1,.44.61,3.39,3.39,0,0,1,.25.88,7,7,0,0,1,.08,1A4.47,4.47,0,0,1,76.75,206.86Z"/><path class="cls-3" d="M87.93,202.32a2,2,0,0,0-.78-.67,2.6,2.6,0,0,0-1.17-.24h-.71l-.37,0-.34,0v6.59l.27,0,.38,0,.39,0h.31a2.43,2.43,0,0,0,1.23-.28,2.3,2.3,0,0,0,.8-.75,3.1,3.1,0,0,0,.42-1.09,6.1,6.1,0,0,0,.13-1.3,6.34,6.34,0,0,0-.13-1.36A2.94,2.94,0,0,0,87.93,202.32Zm-.27,3.47a2.84,2.84,0,0,1-.28.88,1.63,1.63,0,0,1-.55.61,1.56,1.56,0,0,1-.87.22h-.69v-5.36l.14,0,.2,0H86a1.51,1.51,0,0,1,.86.23,1.8,1.8,0,0,1,.53.6,3.1,3.1,0,0,1,.26.86,6.17,6.17,0,0,1,0,2Z"/><polygon class="cls-3" points="92.05 205.01 94.09 205.01 94.09 204.37 92.05 204.37 92.05 202.14 94.27 202.14 94.27 201.49 91.35 201.49 91.35 208.07 94.32 208.07 94.32 207.42 92.05 207.42 92.05 205.01"/><path class="cls-3" d="M104.15,205.07a1.17,1.17,0,0,0-.37-.3,1.4,1.4,0,0,0-.43-.16v0a1.24,1.24,0,0,0,.45-.25,1.45,1.45,0,0,0,.3-.39,1.7,1.7,0,0,0,.18-.46,2,2,0,0,0,.06-.49,1.8,1.8,0,0,0-.16-.8,1.18,1.18,0,0,0-.41-.47,1.43,1.43,0,0,0-.57-.23,3.48,3.48,0,0,0-.64-.07c-.3,0-.57,0-.82,0s-.48.06-.67.1V208a1.91,1.91,0,0,0,.36.07l.39,0h.67a2.43,2.43,0,0,0,.77-.11,1.74,1.74,0,0,0,.64-.35,1.7,1.7,0,0,0,.44-.6,2.34,2.34,0,0,0,.16-.88,2.08,2.08,0,0,0-.1-.66A1.39,1.39,0,0,0,104.15,205.07Zm-2.37-3,.3,0,.44,0a1.47,1.47,0,0,1,.42.06.84.84,0,0,1,.34.17.81.81,0,0,1,.23.33,1.35,1.35,0,0,1,.08.52,1.2,1.2,0,0,1-.25.78,1.36,1.36,0,0,1-.59.45,1.14,1.14,0,0,1-.28,0h-.69Zm1.88,4.68a1.16,1.16,0,0,1-.26.39,1.36,1.36,0,0,1-.38.24,1.4,1.4,0,0,1-.47.08h-.43l-.2,0-.14,0V205h.63a2.63,2.63,0,0,1,.49,0,1.09,1.09,0,0,1,.43.18,1,1,0,0,1,.31.37,1.58,1.58,0,0,1,.11.63A1.53,1.53,0,0,1,103.66,206.79Z"/><rect class="cls-3" x="107.49" y="201.49" width="0.7" height="6.58"/><path class="cls-3" d="M114.23,207.44a1.7,1.7,0,0,1-.57.09,1.44,1.44,0,0,1-1.25-.69,3.71,3.71,0,0,1-.47-2.06,5.29,5.29,0,0,1,.13-1.29,2.68,2.68,0,0,1,.36-.85,1.41,1.41,0,0,1,.51-.47,1.37,1.37,0,0,1,.62-.14,2.65,2.65,0,0,1,.59.05,1.75,1.75,0,0,1,.44.16l.17-.64a4.42,4.42,0,0,0-.51-.16,3.92,3.92,0,0,0-.75-.06,2.14,2.14,0,0,0-.86.18,1.77,1.77,0,0,0-.74.58,3.21,3.21,0,0,0-.51,1.05,5.58,5.58,0,0,0-.19,1.59,5.9,5.9,0,0,0,.17,1.56,3.15,3.15,0,0,0,.47,1.06,1.79,1.79,0,0,0,.73.59,2.17,2.17,0,0,0,.92.19,3.67,3.67,0,0,0,.75-.08,1.31,1.31,0,0,0,.59-.29l-.17-.58A1.91,1.91,0,0,1,114.23,207.44Z"/><rect class="cls-3" x="117.69" y="201.49" width="0.7" height="6.58"/><path class="cls-3" d="M124.43,207.44a1.7,1.7,0,0,1-.57.09,1.44,1.44,0,0,1-1.25-.69,3.63,3.63,0,0,1-.47-2.06,5.29,5.29,0,0,1,.13-1.29,2.47,2.47,0,0,1,.35-.85,1.43,1.43,0,0,1,.52-.47,1.34,1.34,0,0,1,.62-.14,2.56,2.56,0,0,1,.58.05,1.83,1.83,0,0,1,.45.16l.16-.64a3.45,3.45,0,0,0-.51-.16,3.73,3.73,0,0,0-.74-.06,2.11,2.11,0,0,0-.86.18,1.77,1.77,0,0,0-.74.58,3,3,0,0,0-.51,1.05,5.55,5.55,0,0,0-.2,1.59,6.35,6.35,0,0,0,.17,1.56,3,3,0,0,0,.48,1.06,1.73,1.73,0,0,0,.73.59,2.13,2.13,0,0,0,.92.19,3.67,3.67,0,0,0,.75-.08,1.36,1.36,0,0,0,.59-.29l-.17-.58A1.91,1.91,0,0,1,124.43,207.44Z"/><polygon class="cls-3" points="128.45 201.49 127.75 201.49 127.75 208.07 130.91 208.07 130.91 207.42 128.45 207.42 128.45 201.49"/><polygon class="cls-3" points="134.2 205.01 136.24 205.01 136.24 204.37 134.2 204.37 134.2 202.14 136.42 202.14 136.42 201.49 133.5 201.49 133.5 208.07 136.47 208.07 136.47 207.42 134.2 207.42 134.2 205.01"/><polygon class="cls-3" points="138.91 202.14 140.53 202.14 140.53 208.07 141.23 208.07 141.23 202.14 142.85 202.14 142.85 201.49 138.91 201.49 138.91 202.14"/><path class="cls-3" d="M146.34,201.39l-2,6.68h.7l.52-1.84h1.86l.53,1.84h.74l-2-6.68Zm-.57,4.23.55-2,.18-1h0l.18,1,.57,2.05Z"/><path class="cls-3" d="M153.64,204.93a4.23,4.23,0,0,0-.61-.51c-.21-.16-.42-.31-.6-.46a2.36,2.36,0,0,1-.47-.48.92.92,0,0,1-.19-.58.88.88,0,0,1,.24-.63,1,1,0,0,1,.75-.24,2.67,2.67,0,0,1,.73.08,2.18,2.18,0,0,1,.49.19l.22-.62a2.21,2.21,0,0,0-.59-.22,4.13,4.13,0,0,0-.84-.08,1.86,1.86,0,0,0-1.23.38,1.39,1.39,0,0,0-.48,1.17,1.78,1.78,0,0,0,.19.83,2.42,2.42,0,0,0,.47.62,4.85,4.85,0,0,0,.61.49c.21.15.42.3.6.45a2.21,2.21,0,0,1,.47.5,1.07,1.07,0,0,1,.19.64,1,1,0,0,1-.33.81,1.29,1.29,0,0,1-.85.26,2.13,2.13,0,0,1-.74-.11,1.67,1.67,0,0,1-.5-.23l-.25.65a2.47,2.47,0,0,0,.58.24,3.43,3.43,0,0,0,.93.1,1.9,1.9,0,0,0,1.38-.47,1.73,1.73,0,0,0,.49-1.3,1.86,1.86,0,0,0-.19-.84A2.71,2.71,0,0,0,153.64,204.93Z"/><path class="cls-4" d="M41.16,179a4,4,0,0,0,.9-2.07c.08-.83,0-1.32-.22-1.46a.53.53,0,0,0-.69.11,1.13,1.13,0,0,0-.26.55,2.31,2.31,0,0,1-.31.69,2.87,2.87,0,0,1-.64.67,2,2,0,0,1-1.13.39,5,5,0,0,1-3.29-1,17.91,17.91,0,0,1-3.32-3.08A35.29,35.29,0,0,1,29,169.29q-1.51-2.53-2.9-5.22c-.92-1.79-1.76-3.52-2.5-5.2s-1.37-3.19-1.88-4.54a7,7,0,0,0,.8.07,7.3,7.3,0,0,0,.81,0,17.57,17.57,0,0,0,6.13-2,43.07,43.07,0,0,0,7-4.46,65.64,65.64,0,0,0,7-6.28,63.12,63.12,0,0,0,6.21-7.44,49.79,49.79,0,0,0,4.59-7.86,24.66,24.66,0,0,0,2.18-7.62,10.65,10.65,0,0,0-.48-4,11.54,11.54,0,0,0-2.32-4.17,11.76,11.76,0,0,0-4.45-3.13,14.27,14.27,0,0,0-6.86-.82,45.42,45.42,0,0,0-15,4c-1.31.59-2.58,1.23-3.83,1.9-.46.25-.91.52-1.36.78A59.5,59.5,0,0,0,14,118.76,50.15,50.15,0,0,0,4.36,129,22.51,22.51,0,0,0,.08,139.39a9.29,9.29,0,0,0,.37,4.3A7.22,7.22,0,0,0,2,146.17a6.2,6.2,0,0,0,2.52,1.39c-.06-.37-.11-.78-.15-1.22a17.18,17.18,0,0,1,.11-3.15c.24-2.36,1.45-5.17,3.63-8.4a47.48,47.48,0,0,1,8.57-9.41,57.89,57.89,0,0,1,12.2-8,40.79,40.79,0,0,1,14.56-4.08,13.61,13.61,0,0,1,2.78,0,8.21,8.21,0,0,1,2.51.69,4,4,0,0,1,1.74,1.51,3.75,3.75,0,0,1,.47,2.43,17.14,17.14,0,0,1-2.15,6.51,38,38,0,0,1-4.62,6.59,60.47,60.47,0,0,1-6.2,6.2,73.9,73.9,0,0,1-6.83,5.31,55.86,55.86,0,0,1-6.66,4,24,24,0,0,1-5.54,2.11q2.7-4.43,5.45-8.38c1.82-2.63,3.47-4.94,4.94-7s2.66-3.65,3.57-5a9,9,0,0,0,1.42-2.46,2.11,2.11,0,0,0-.66-1.51A7.11,7.11,0,0,0,31.9,123a16.61,16.61,0,0,0-2-1.06,3.61,3.61,0,0,0-1.41-.4c-.43,0-1.33.91-2.68,2.61s-2.93,3.94-4.72,6.7-3.69,5.9-5.72,9.44-3.91,7.18-5.66,10.91a113.07,113.07,0,0,0-4.52,11.1,45.35,45.35,0,0,0-2.34,10c-.34,3.33-.13,5.77.61,7.32s1.7,2.28,2.87,2.18,1.75-.46,2-1.08.25-1.09,0-1.38c0-.06-.15-.07-.32,0a1.36,1.36,0,0,1-.49,0c-.16,0-.29-.16-.4-.44a4.08,4.08,0,0,1,0-1.57,40.17,40.17,0,0,1,2.5-10.16,96,96,0,0,1,4.75-10.45q.91,2.2,2.28,5.08t3,5.83c1.06,2,2.21,3.89,3.45,5.78a39.17,39.17,0,0,0,3.81,5,18.37,18.37,0,0,0,4,3.4,6.58,6.58,0,0,0,4,1.08A6.6,6.6,0,0,0,37,182.2a14,14,0,0,0,2.32-1.4A9.34,9.34,0,0,0,41.16,179Z"/><path class="cls-4" d="M78,145.21a42.6,42.6,0,0,1,6.23-6,88.55,88.55,0,0,1-3.68,8.93c-.56,1.11-1.16,2.22-1.79,3.31a24.37,24.37,0,0,1-2,2.92,12.1,12.1,0,0,1-2.16,2.14,4.47,4.47,0,0,1-2.27,1,.48.48,0,0,1-.52-.4c-.1-.28-.35-.2-.74.24a3.31,3.31,0,0,0-.79,1.91,5.14,5.14,0,0,0,.29,2.28,4.36,4.36,0,0,0,1.31,1.89,3,3,0,0,0,2.26.63,6.66,6.66,0,0,0,3.78-1.83A23.75,23.75,0,0,0,81.58,158a48.39,48.39,0,0,0,3.28-5.46q1.55-3,2.68-5.75t1.86-5.07a18.4,18.4,0,0,0,.83-3.34,9.35,9.35,0,0,0-.43-4.59,2.23,2.23,0,0,0-2.4-1.51q-1.82.15-4.83,3.33a93,93,0,0,0-6.48,7.72c1-2,1.86-3.46,2.44-4.45a7.13,7.13,0,0,0,.9-1.93,2,2,0,0,0-.35-1.3A4.46,4.46,0,0,0,78,134.48a5.09,5.09,0,0,0-1.64-.78,5.47,5.47,0,0,0-1.93-.19c-.21,0-.88,1-2,3s-2.56,4.53-4.22,7.65c-1,1.79-2,3.73-3,5.78-.7.68-1.43,1.41-2.25,2.23A44.74,44.74,0,0,1,59,155.66a22.35,22.35,0,0,1-4.29,2.67,7.6,7.6,0,0,1-4.27.77,1.64,1.64,0,0,1-1.5-1.1,4.48,4.48,0,0,1-.12-2.15,11.45,11.45,0,0,1,.7-2.45,14.3,14.3,0,0,1,.95-2A3.51,3.51,0,0,0,51.55,153a2.73,2.73,0,0,0,2.08.57,7.85,7.85,0,0,0,4.11-1.73,20.24,20.24,0,0,0,3.59-3.63A26.3,26.3,0,0,0,64,144a10.56,10.56,0,0,0,1.17-3.41q.34-3.39-1.13-4.76a4.53,4.53,0,0,0-3.67-1.18,11.23,11.23,0,0,0-5,2.25,33.56,33.56,0,0,0-5.85,5.28,38.89,38.89,0,0,0-5.08,7.2,20.83,20.83,0,0,0-2.61,8A10.48,10.48,0,0,0,42.93,164a4.68,4.68,0,0,0,4.76,2.28,13.22,13.22,0,0,0,5.59-1.95,34.55,34.55,0,0,0,5.43-4c.95-.85,1.84-1.73,2.69-2.64-1.37,2.93-2.7,5.86-3.95,8.76q-2.51,5.82-4.31,11.06A40.76,40.76,0,0,0,51,186.25a7.62,7.62,0,0,0,.19,2.9,6.71,6.71,0,0,0,1,2,3.41,3.41,0,0,0,1.28,1.08,1.57,1.57,0,0,0,1.23.07.32.32,0,0,0,.22-.33c0-.15,0-.37,0-.66a7.31,7.31,0,0,1,0-1.11,8,8,0,0,1,.48-1.76q2.71-6.85,5.21-12.64t4.72-10.66a84.23,84.23,0,0,1,6.63-11.84A92.7,92.7,0,0,1,78,145.21Zm-24,.95a28.26,28.26,0,0,1,2.39-2.55,15.65,15.65,0,0,1,2.28-1.79,4.63,4.63,0,0,1,1.91-.74c.5,0,.53.31.08,1.06a15,15,0,0,1-2.09,2.56,26.56,26.56,0,0,1-3.28,2.81,10.59,10.59,0,0,1-3.55,1.77A28.69,28.69,0,0,1,54,146.16Z"/><path class="cls-4" d="M147,135.45a15.1,15.1,0,0,0,.18-6.29,2.47,2.47,0,0,0-2.86-2.13,5.5,5.5,0,0,0-2.67,1.3,27,27,0,0,0-3.32,3.11q-1.77,1.92-3.66,4.34c-1.26,1.61-2.5,3.24-3.71,4.87q1.68-3.32,3.72-7.17c1.36-2.56,2.73-5.06,4.13-7.51s2.77-4.76,4.11-6.94,2.54-4,3.59-5.44c.24-.37.13-.85-.31-1.43a7,7,0,0,0-1.71-1.57,10,10,0,0,0-2.1-1.09c-.7-.27-1.13-.27-1.31,0q-1.66,2.44-4,6.17t-4.72,8.14q-2.43,4.41-4.82,9.12t-4.32,9c-.3.66-.58,1.3-.85,1.93,0-.33-.16-.55-.37-.63s-.83.2-1.56,1l-1.7,1.61L116,148.46c-1,.94-1.94,1.81-2.85,2.63s-1.53,1.38-1.86,1.71a44.81,44.81,0,0,1,3-6.49c1.22-2.19,2.43-4.23,3.62-6.1s2.21-3.46,3.07-4.77a9.89,9.89,0,0,0,1.33-2.41,2.07,2.07,0,0,0-.36-1.3,4.31,4.31,0,0,0-1.12-1.18,5.09,5.09,0,0,0-1.64-.78,5.47,5.47,0,0,0-1.93-.19c-.41,0-1.13.65-2.17,1.83s-2.27,2.67-3.68,4.47-2.9,3.73-4.48,5.78-3.09,4-4.52,5.78-2.72,3.3-3.86,4.49-2,1.81-2.47,1.85-.35-.38,0-1.24.89-1.93,1.6-3.23,1.52-2.72,2.46-4.27,1.81-3,2.65-4.39,1.54-2.53,2.11-3.49a9.73,9.73,0,0,0,.88-1.63,3,3,0,0,0-.38-1.82,5.43,5.43,0,0,0-1.23-1.48,5,5,0,0,0-1.82-.94,5.36,5.36,0,0,0-2-.22c-.3,0-.77.43-1.4,1.22a36.05,36.05,0,0,0-2.15,3.15q-1.21,2-2.55,4.51c-.9,1.7-1.74,3.46-2.53,5.3a56.47,56.47,0,0,0-2,5.52,27.16,27.16,0,0,0-1.08,5.17,8,8,0,0,0,.16,2.85,8.31,8.31,0,0,0,.8,2.1,4.81,4.81,0,0,0,1,1.28,1.31,1.31,0,0,0,.82.41,6.92,6.92,0,0,0,3.23-1.47,38.49,38.49,0,0,0,4-3.44q2.11-2.08,4.29-4.66c1.45-1.72,2.81-3.45,4.09-5.22-.37,1.22-.71,2.39-1,3.54a21.89,21.89,0,0,0-.58,3.23,17.07,17.07,0,0,0-.08,3.36,7.32,7.32,0,0,0,.43,2,2.57,2.57,0,0,0,.64,1,1,1,0,0,0,.65.25,5.92,5.92,0,0,0,2.53-1.59c1.17-1,2.43-2.17,3.76-3.46s2.6-2.57,3.83-3.83,2.09-2.17,2.6-2.74c.29-.31.54-.61.78-.92-.15.38-.29.78-.43,1.15a22.47,22.47,0,0,0-1.39,5.6,5.42,5.42,0,0,0,.74,3.11,2.72,2.72,0,0,0,2.47,1.46,1.45,1.45,0,0,0,.82-.29,2.28,2.28,0,0,0,.46-.53,1.81,1.81,0,0,0,.25-.59l.08-.41a48.69,48.69,0,0,1,4.91-8.9Q131.3,145,134,141.7q3.24-3.81,6.65-7.2c.47-.16.61.12.44.84a13.49,13.49,0,0,1-1.19,2.89c-.62,1.2-1.41,2.54-2.35,4s-1.93,2.9-3,4.28a34.19,34.19,0,0,1-3,3.62,10.48,10.48,0,0,1-2.61,2.08.32.32,0,0,1-.38,0,1.7,1.7,0,0,1-.23-.24.4.4,0,0,0-.25-.16c-.1,0-.26.1-.49.35a3.43,3.43,0,0,0-.79,2,5.55,5.55,0,0,0,.28,2.41,4.44,4.44,0,0,0,1.33,2,3,3,0,0,0,2.29.68,5.47,5.47,0,0,0,2.8-1.39,22.63,22.63,0,0,0,3.26-3.34,54.83,54.83,0,0,0,3.35-4.57q1.68-2.53,3.07-5.17c.93-1.76,1.72-3.45,2.39-5.07A22.63,22.63,0,0,0,147,135.45Z"/><path class="cls-4" d="M170.89,109.64q-1.15-.92-3.75-.33a4.45,4.45,0,0,0-1.92,1.54,25.43,25.43,0,0,0-2.1,3,24,24,0,0,0-1.73,3.38,6.58,6.58,0,0,0-.64,2.66,3.1,3.1,0,0,0,.54,1.67,4.45,4.45,0,0,0,1.05,1.1,9.29,9.29,0,0,0,1.57.83,49.66,49.66,0,0,1,4.26-6.59,24.71,24.71,0,0,1,2.48-2.69l1.15-1c.19-.16.28-.66.27-1.48A2.77,2.77,0,0,0,170.89,109.64Z"/><path class="cls-4" d="M161.32,139.71c-.31-.12-.8.2-1.48,1-.28.32-.84.87-1.67,1.65l-2.73,2.57q-1.49,1.41-2.85,2.64c-.91.81-1.55,1.39-1.94,1.71a51.71,51.71,0,0,1,2.95-6.48c1.2-2.25,2.36-4.33,3.47-6.22s2.09-3.51,2.93-4.85a9.86,9.86,0,0,0,1.31-2.54,2.48,2.48,0,0,0-1.31-2.32,5.05,5.05,0,0,0-3.4-.8c-.55,0-1.43.93-2.63,2.66a56,56,0,0,0-3.75,6.38,73.73,73.73,0,0,0-3.56,8.08,32.18,32.18,0,0,0-1.95,7.85,14.88,14.88,0,0,0,0,3.85,5.4,5.4,0,0,0,.66,2,1.54,1.54,0,0,0,.91.71,3.34,3.34,0,0,0,.78.07,5.51,5.51,0,0,0,2.4-1.58c1.11-1,2.28-2.16,3.54-3.45s2.45-2.55,3.6-3.8,2-2.16,2.49-2.74a9.9,9.9,0,0,0,1.89-2.77,8.1,8.1,0,0,0,.73-2.4C161.76,140.22,161.64,139.83,161.32,139.71Z"/><path class="cls-4" d="M106.33,79l-3-1.85L93,70.8,99.32,61l8.55.26a2.4,2.4,0,1,0,.15-4.8h-.26l-1.57-.05a3.36,3.36,0,0,0-2-2.13l-2.59-1-1.56-.6-4.21-9.16a3.52,3.52,0,0,0-.28-.46s0,0,0,0a3.35,3.35,0,0,0-2.67-1.45l-.13,0-3.22,0,.11-.88c.19,0,.37.08.56.1a11.19,11.19,0,0,0,1.52.1,12,12,0,0,0,11.83-10.42h0c0-.1,0-.2,0-.29a11.93,11.93,0,1,0-20.29,7.2l-.54,4.25-4.15,0-.18,0-.36,0-.31.07-.31.1-.3.13-.28.16-.28.19-.24.2-.25.27L76,43,71.2,49.15l-.86,1.12-5.75,2.35-2.12.87a3.35,3.35,0,0,0-1.93,2.12l-.89,0h-.08a2.4,2.4,0,0,0-.07,4.8l8.62.27L74.84,71.5a2.43,2.43,0,0,0,1.7,1.11l1.4.2-7,9.79a3.36,3.36,0,0,0-.18,3.64L79.23,101l-.81,2.62c-.68,3.51,1.57,4.4,3.27,5.15.44.2,2.32-1.93,2.88-3.19L85.71,103l-1.09,18.64a4.33,4.33,0,0,0,4.07,4.57H89a4.32,4.32,0,0,0,4.31-4.07l1.86-32.06a4.32,4.32,0,1,0-8.63-.5l-.56,9.57s0,0,0,0l-8.29-14.4,3.55-4.92a2.34,2.34,0,0,0,1.68.7h.19L86,80.31l.09.64a2.4,2.4,0,0,0,1.22,4.47l.34,0,2.18-.31a2.4,2.4,0,0,0,.06-4.74l0-.33.83-.06a2.4,2.4,0,0,0,2-1.46l8.09,5-4.43,20.35a3.36,3.36,0,0,0,.87,3.05l3.74,3.88c.66.69,3,2.4,3.69,1.77a5.32,5.32,0,0,0,.65-6.53l-2-2.49,4.55-20.92A3.4,3.4,0,0,0,106.33,79ZM79.72,68.21,78.34,68l-6.8-11,2.18-.89a3.51,3.51,0,0,0,1.4-1.07L80,48.74l-1.19,17.4A4.16,4.16,0,0,0,79.72,68.21Zm4.49,7.42.5-.7.05.66Zm1.38-47.48a6.18,6.18,0,0,1,6.12-5.38,5.11,5.11,0,0,1,.78.05,6.16,6.16,0,1,1-6.9,5.33Zm7,24.27,2,4.27a3.34,3.34,0,0,0,1,1.26L93,62Z"/></g></g></svg>